<svg width="433" height="419" viewBox="0 0 433 419" fill="none" xmlns="http://www.w3.org/2000/svg">
    <rect x="184" width="78" height="391" rx="39" fill="#CBCBE9"/>
    <path d="M222 39H395.831L433 81.1288L395.831 122H213L222 39Z" fill="#CBCBE9"/>
    <path d="M222 163H350.426L387 204.114L350.426 244H222V163Z" fill="#CBCBE9"/>
    <path d="M210 72H65.778L24 114.129L65.778 155H210V72Z" fill="#CBCBE9"/>
    <rect x="164" y="20" width="78" height="391" rx="39" stroke="#4842B6" stroke-width="15"/>
    <path d="M240 59H374.831L412 101.129L374.831 142H240" stroke="#4842B6" stroke-width="15"/>
    <path d="M241 183H329.426L366 224.114L329.426 264H241" stroke="#4842B6" stroke-width="15"/>
    <path d="M159 91H52.778L11 133.129L52.778 174H159" stroke="#4842B6" stroke-width="15"/>
</svg>
