<svg xmlns="http://www.w3.org/2000/svg" x="0px" y="0px"
	 viewBox="0 0 511.996 511.996" style="enable-background:new 0 0 511.996 511.996;">
	<g>
		<g>
			<path d="M482.037,29.958c-39.953-39.945-104.713-39.945-144.666,0L228.87,138.46c-10.402,10.402-17.954,22.519-22.938,35.405
			c9.216-0.35,18.423,0.077,27.52,1.707c3.524-6.81,7.791-13.329,13.5-19.029L355.454,48.041c29.918-29.918,78.583-29.918,108.501,0
			c29.918,29.918,29.918,78.583,0,108.501L355.454,265.043c-29.909,29.909-78.583,29.918-108.501,0
			c-10.94-10.94-25.617-15.65-39.945-14.601c4.992,11.861,12.203,23.023,21.862,32.683c39.945,39.945,104.713,39.945,144.666,0
			l108.501-108.501C521.982,134.68,521.982,69.903,482.037,29.958z"/>
		</g>
	</g>
	<g>
		<g>
			<path d="M278.543,336.425c-3.533,6.81-7.799,13.329-13.5,19.029L156.542,463.955c-29.909,29.909-78.583,29.918-108.501,0
			c-29.918-29.918-29.909-78.583,0-108.501l108.501-108.501c29.918-29.918,78.583-29.918,108.501,0
			c10.94,10.94,25.617,15.659,39.945,14.601c-4.983-11.861-12.203-23.023-21.862-32.683c-39.945-39.945-104.713-39.945-144.666,0
			L29.958,337.372c-39.945,39.945-39.945,104.713,0,144.666c39.945,39.945,104.713,39.945,144.666,0l108.501-108.501
			c10.402-10.402,17.954-22.519,22.938-35.405C296.847,338.481,287.639,338.054,278.543,336.425z"/>
		</g>
	</g>
</svg>